<?xml version="1.0" encoding="UTF-8" standalone="no"?>
<!DOCTYPE svg PUBLIC "-//W3C//DTD SVG 1.1//EN" "http://www.w3.org/Graphics/SVG/1.1/DTD/svg11.dtd">
<svg width="100%" height="100%" viewBox="0 0 1371 163" version="1.1" xmlns="http://www.w3.org/2000/svg" xmlns:xlink="http://www.w3.org/1999/xlink" xml:space="preserve" xmlns:serif="http://www.serif.com/" style="fill-rule:evenodd;clip-rule:evenodd;stroke-linejoin:round;stroke-miterlimit:1.41421;">
    <g transform="matrix(1,0,0,1,-49.8362,-156.635)">
        <g id="Layer-2" serif:id="Layer 2">
            <g transform="matrix(1,0,0,1,132.262,271.92)">
                <path d="M0,-68.077L-52.176,-53.958L-58.197,-76.207L-6.02,-90.326L0,-68.077ZM8.839,-35.41L-1.593,-32.588L-4.541,-43.483L5.891,-46.306L8.839,-35.41ZM14.728,-13.648L4.296,-10.825L1.351,-21.711L11.783,-24.534L14.728,-13.648ZM20.622,8.133L10.19,10.955L7.242,0.061L17.674,-2.762L20.622,8.133ZM-12.029,-29.764L-22.465,-26.94L-25.413,-37.835L-14.977,-40.659L-12.029,-29.764ZM-6.14,-8.001L-16.576,-5.178L-19.521,-16.063L-9.086,-18.887L-6.14,-8.001ZM-0.247,13.779L-10.682,16.604L-13.63,5.709L-3.194,2.885L-0.247,13.779ZM-32.901,-24.116L-43.337,-21.292L-46.285,-32.187L-35.849,-35.011L-32.901,-24.116ZM-27.012,-2.353L-37.448,0.471L-40.394,-10.415L-29.958,-13.239L-27.012,-2.353ZM-21.118,19.427L-31.555,22.251L-34.502,11.357L-24.066,8.533L-21.118,19.427ZM-1.476,-114.921L-74.524,-95.155C-80.287,-93.596 -83.642,-87.46 -82.015,-81.445L-49.481,38.784C-47.854,44.8 -41.862,48.405 -36.1,46.847L36.949,27.08C42.716,25.52 46.072,19.384 44.444,13.369L11.911,-106.861C10.283,-112.875 4.291,-116.482 -1.476,-114.921" style="fill-rule:nonzero;"/>
            </g>
            <path d="M189.466,273.654L212.266,303.654L236.986,303.654L203.266,257.814L234.346,222.054L210.346,222.054L177.826,259.134L177.826,222.054L157.546,222.054L157.546,303.654L177.826,303.654L177.826,287.094L189.466,273.654Z" style="fill:rgb(234,90,10);fill-rule:nonzero;"/>
            <path d="M276.226,220.374C251.626,220.374 233.026,239.094 233.026,262.854C233.026,286.614 251.626,305.334 276.226,305.334C300.946,305.334 319.546,286.614 319.546,262.854C319.546,239.094 300.946,220.374 276.226,220.374ZM276.226,286.494C263.026,286.494 253.546,275.694 253.546,262.854C253.546,250.014 263.026,239.214 276.226,239.214C289.426,239.214 298.906,250.014 298.906,262.854C298.906,275.694 289.426,286.494 276.226,286.494Z" style="fill:rgb(234,90,10);fill-rule:nonzero;"/>
            <path d="M373.186,220.374C348.586,220.374 329.986,239.094 329.986,262.854C329.986,286.614 348.586,305.334 373.186,305.334C397.906,305.334 416.506,286.614 416.506,262.854C416.506,239.094 397.906,220.374 373.186,220.374ZM373.186,286.494C359.986,286.494 350.506,275.694 350.506,262.854C350.506,250.014 359.986,239.214 373.186,239.214C386.386,239.214 395.866,250.014 395.866,262.854C395.866,275.694 386.386,286.494 373.186,286.494Z" style="fill:rgb(234,90,10);fill-rule:nonzero;"/>
            <path d="M428.866,222.054L428.866,303.654L461.746,303.654C487.306,303.654 505.786,286.854 505.786,262.614C505.786,238.734 487.306,222.054 461.746,222.054L428.866,222.054ZM449.146,285.414L449.146,240.294L461.746,240.294C474.946,240.294 485.146,250.014 485.146,262.614C485.146,275.574 474.946,285.414 461.746,285.414L449.146,285.414Z" style="fill:rgb(234,90,10);fill-rule:nonzero;"/>
            <path d="M566.506,289.614L572.026,303.654L593.506,303.654L558.946,221.574L539.626,221.574L504.946,303.654L526.546,303.654L531.946,289.614L566.506,289.614ZM559.786,272.334L538.666,272.334L549.226,245.214L559.786,272.334Z" style="fill:rgb(234,90,10);fill-rule:nonzero;"/>
            <path d="M635.146,280.014L652.666,303.654L677.146,303.654L656.146,276.054C665.866,271.134 671.746,262.134 671.746,250.734C671.746,233.094 658.186,222.054 638.026,222.054L602.266,222.054L602.266,303.654L622.546,303.654L622.546,280.014L635.146,280.014ZM622.546,261.774L622.546,239.934L637.546,239.934C645.346,239.934 651.586,244.134 651.586,250.734C651.586,257.454 645.346,261.774 637.546,261.774L622.546,261.774Z" style="fill:rgb(234,90,10);fill-rule:nonzero;"/>
            <rect x="684.706" y="222.054" width="20.28" height="81.6" style="fill:rgb(234,90,10);fill-rule:nonzero;"/>
            <path d="M794.506,222.054L774.226,222.054L774.226,268.014L734.866,222.054L719.386,222.054L719.386,303.654L739.666,303.654L739.666,258.894L778.786,303.654L794.506,303.654L794.506,222.054Z" style="fill:rgb(234,90,10);fill-rule:nonzero;"/>
            <path d="M808.786,222.054L808.786,303.654L829.066,303.654L829.066,282.894L839.986,282.894C862.306,282.894 876.226,271.014 876.226,251.934C876.226,233.574 862.906,222.054 841.666,222.054L808.786,222.054ZM829.066,265.134L829.066,239.934L841.186,239.934C850.186,239.934 855.946,244.614 855.946,251.934C855.946,259.974 850.186,265.134 841.186,265.134L829.066,265.134Z" style="fill:rgb(234,90,10);fill-rule:nonzero;"/>
            <path d="M930.706,289.614L936.226,303.654L957.706,303.654L923.146,221.574L903.826,221.574L869.146,303.654L890.746,303.654L896.146,289.614L930.706,289.614ZM923.986,272.334L902.866,272.334L913.426,245.214L923.986,272.334Z" style="fill:rgb(234,90,10);fill-rule:nonzero;"/>
            <path d="M1027.07,285.774L986.746,285.774L986.746,222.054L966.466,222.054L966.466,303.654L1027.07,303.654L1027.07,285.774Z" style="fill:rgb(234,90,10);fill-rule:nonzero;"/>
            <path d="M1068.59,273.654L1091.39,303.654L1116.11,303.654L1082.39,257.814L1113.47,222.054L1089.47,222.054L1056.95,259.134L1056.95,222.054L1036.67,222.054L1036.67,303.654L1056.95,303.654L1056.95,287.094L1068.59,273.654Z" style="fill:rgb(234,90,10);fill-rule:nonzero;"/>
            <path d="M1155.11,273.654L1177.91,303.654L1202.63,303.654L1168.91,257.814L1199.99,222.054L1175.99,222.054L1143.47,259.134L1143.47,222.054L1123.19,222.054L1123.19,303.654L1143.47,303.654L1143.47,287.094L1155.11,273.654Z" style="fill:rgb(234,90,10);fill-rule:nonzero;"/>
            <path d="M1266.35,289.614L1271.87,303.654L1293.35,303.654L1258.79,221.574L1239.47,221.574L1204.79,303.654L1226.39,303.654L1231.79,289.614L1266.35,289.614ZM1259.63,272.334L1238.51,272.334L1249.07,245.214L1259.63,272.334Z" style="fill:rgb(234,90,10);fill-rule:nonzero;"/>
            <path d="M1309.07,305.814C1315.07,305.814 1319.99,301.254 1319.99,295.254C1319.99,289.374 1315.07,284.814 1309.07,284.814C1303.07,284.814 1298.15,289.374 1298.15,295.254C1298.15,301.254 1303.07,305.814 1309.07,305.814Z" style="fill:rgb(234,90,10);fill-rule:nonzero;"/>
            <path d="M1350.59,239.934L1391.15,239.934L1391.15,222.054L1330.31,222.054L1330.31,303.654L1350.59,303.654L1350.59,274.854L1385.63,274.854L1385.63,257.214L1350.59,257.214L1350.59,239.934Z" style="fill:rgb(234,90,10);fill-rule:nonzero;"/>
            <rect x="1400.27" y="222.054" width="20.28" height="81.6" style="fill:rgb(234,90,10);fill-rule:nonzero;"/>
        </g>
    </g>
</svg>
